<svg width="75" height="76" viewBox="0 0 75 76" fill="none" xmlns="http://www.w3.org/2000/svg">
<path d="M74.992 62.0502C74.992 61.3598 74.4299 60.7979 73.7394 60.7979H36.0427C25.6049 60.7979 20.0889 60.7979 17.1823 60.7979C14.4631 60.7979 13.0661 60.5008 12.9911 59.9068L12.8787 59.0318H12.8948L12.6057 56.6957C12.397 55.0473 12.4398 54.1027 12.7342 53.8619L13.1597 53.5087L13.5371 53.6291C14.2517 53.6291 14.902 53.6291 15.4962 53.6211C15.5524 53.613 15.6086 53.605 15.6728 53.597C15.6728 53.597 15.721 53.597 15.7692 53.597C15.9619 53.5809 16.1706 53.5809 16.3794 53.5809H20.3378C20.6348 53.5729 20.8998 53.5729 21.1407 53.5809C21.237 53.5809 21.2852 53.5809 21.3093 53.5809V53.597C21.3815 53.597 21.4458 53.613 21.51 53.6211C27.9172 53.6371 41.2536 53.6452 68.8898 53.6452C72.3745 53.6452 75 51.0121 75 47.52V16.9584C75 14.5501 73.0329 12.5833 70.6161 12.5753L16.8049 12.487L15.1509 3.39956C14.8378 1.66557 13.3283 0.405212 11.57 0.405212H1.25254C0.562038 0.405212 0 0.967154 0 1.65754C0 2.34792 0.562038 2.90987 1.25254 2.90987C4.16711 2.90987 6.27074 2.90987 7.78022 2.90987C9.74735 2.90987 10.7269 2.90987 11.2247 2.90987C11.6021 2.91789 12.6057 2.94198 12.686 3.88925L13.4568 8.09578C14.1687 11.9866 15.3544 19.241 17.0137 29.859C17.7845 34.8041 18.7962 41.2744 20.1531 49.9363L20.3297 51.0843L13.3765 51.1164C12.3648 51.1164 11.4013 51.5579 10.7349 52.3206C10.0685 53.0752 9.75538 54.0867 9.88385 55.0902L10.5262 60.2038C10.743 61.9699 12.2524 63.3025 14.0349 63.3025H19.6794L18.9246 64.7636C17.7524 67.0274 17.8568 69.6926 19.1896 71.8842C20.5224 74.0757 22.8509 75.3843 25.4122 75.3843C27.9735 75.3843 30.2939 74.0757 31.6347 71.8842C32.9676 69.6926 33.0719 67.0354 31.8997 64.7636L31.153 63.3025H55.9148L55.16 64.7636C53.9878 67.0274 54.0922 69.6926 55.425 71.8842C56.7578 74.0757 59.0863 75.3843 61.6476 75.3843C64.2089 75.3843 66.5293 74.0757 67.8701 71.8842C69.203 69.6926 69.3074 67.0354 68.1351 64.7636L67.3884 63.3025H73.7314C74.4219 63.3025 74.9839 62.7406 74.9839 62.0502H74.992ZM50.8163 51.1325H38.612L36.5084 34.3385H52.9119L50.8083 51.1325H50.8163ZM57.8578 15.0639L70.6081 15.0879C71.6438 15.0879 72.4869 15.9228 72.4869 16.9584V31.8258H55.7622L57.8578 15.0639ZM72.4869 34.3385V47.52C72.4869 49.6473 71.0095 51.1325 68.8898 51.1325H53.3535L55.4491 34.3385H72.4869ZM55.3287 15.0639L53.2331 31.8338H36.2033L34.0997 15.0317L55.3287 15.0719V15.0639ZM19.856 31.8258L17.2225 14.9916L31.5705 15.0157L33.6741 31.8258H19.856ZM20.2494 34.3385H33.9792L36.0748 51.1325H22.883L20.2494 34.3385ZM25.4122 72.8716C22.7706 72.8716 20.6268 70.7282 20.6268 68.0871C20.6268 65.4459 22.7706 63.3025 25.4122 63.3025C28.0537 63.3025 30.1975 65.4459 30.1975 68.0871C30.1975 70.7282 28.0537 72.8716 25.4122 72.8716ZM61.6556 72.8716C59.014 72.8716 56.8703 70.7282 56.8703 68.0871C56.8703 65.4459 59.014 63.3025 61.6556 63.3025C64.2972 63.3025 66.441 65.4459 66.441 68.0871C66.441 70.7282 64.2972 72.8716 61.6556 72.8716Z" fill="white"/>
</svg>
