<svg width="192" height="69" viewBox="0 0 192 69" fill="none" xmlns="http://www.w3.org/2000/svg">
<path d="M101.75 17.8768C101.167 17.8252 100.583 17.7736 100 17.722C100.069 14.127 100.153 10.5491 100.25 6.9541C100.833 7.12611 101.417 7.31533 102 7.48734C101.903 10.9448 101.819 14.4022 101.736 17.8596" fill="white"/>
<path d="M104.461 26.0011C104.617 22.962 104.802 19.9229 105 16.8838C101.995 16.8988 98.9905 16.9139 96 16.9139C96 21.2017 96 25.4896 96 29.7925C98.8488 28.5738 101.669 27.295 104.461 26.0011Z" fill="white"/>
<path fill-rule="evenodd" clip-rule="evenodd" d="M95.4952 0.465088L96.7685 0.968627C99.9522 2.33508 103.089 3.75783 106.21 5.19136L106.529 5.33783L106.498 5.6854C105.904 12.4001 105.448 19.1307 105.097 25.9082L105.082 26.2131L104.8 26.3367C101.796 27.6575 98.7585 28.9639 95.6892 30.2094L95.4995 30.2864L95.3101 30.2091C92.2565 28.9638 89.2195 27.6575 86.2005 26.3371L85.9185 26.2138L85.9027 25.9082C85.5525 19.1307 85.0957 12.4001 84.5019 5.6854L84.4712 5.33783L84.7901 5.19136C87.9105 3.75811 91.0579 2.3361 94.2312 0.970402L95.4952 0.465088ZM95.5004 1.5081C92.1508 2.93624 88.8274 4.43287 85.5287 5.94624C86.0999 12.4579 86.5429 18.9838 86.8855 25.5516C89.7455 26.8011 92.6167 28.0345 95.5005 29.2132C98.3976 28.0347 101.269 26.8015 104.114 25.5522C104.457 18.9842 104.9 12.4581 105.471 5.94622C102.173 4.43249 98.8629 2.93603 95.5004 1.5081Z" fill="white"/>
<path d="M85.0159 5.72662C85.3507 9.4327 85.6377 13.1388 85.8768 16.8448C87.0565 16.8448 88.2522 16.8448 89.4319 16.8448C90.1812 14.8205 90.9145 12.7806 91.6478 10.7252C91.6478 12.7651 91.6638 14.8049 91.6638 16.8448C93.1145 16.8448 94.5493 16.8448 96 16.8448C96 11.5505 96 6.25606 96 0.96167C92.3015 2.4877 88.6348 4.09159 85 5.71105L85.0159 5.72662ZM89.0652 10.0089C89.0333 8.2181 88.9855 6.44292 88.9217 4.65217C89.5116 4.40303 90.0855 4.15388 90.6754 3.90473C90.1333 5.94463 89.6073 7.98453 89.0652 10.0244V10.0089Z" fill="white"/>
<path d="M76 27.7653H0V24.7864H75.2753L76 27.7653Z" fill="white"/>
<path d="M192 27.7653H115L115.483 24.7864H192V27.7653Z" fill="white"/>
<path d="M53.538 63.5017C54.2067 63.5017 54.7842 63.7407 55.2705 64.2048C55.7568 64.6688 56 65.2593 56 65.9483C56 66.6373 55.7568 67.27 55.2705 67.7481C54.7842 68.2262 54.1915 68.4652 53.4924 68.4652C52.7933 68.4652 52.2006 68.2402 51.7143 67.7762C51.228 67.3122 51 66.7076 51 65.9764C51 65.2453 51.2736 64.6125 51.8359 64.1344C52.3222 63.7267 52.8997 63.5158 53.5684 63.5158M53.4924 63.7689C53.0365 63.7689 52.6717 63.9235 52.383 64.2469C52.0334 64.6406 51.8663 65.2171 51.8663 65.9624C51.8663 66.7076 52.0486 67.3263 52.3982 67.7481C52.6717 68.0715 53.0365 68.2262 53.4924 68.2262C53.9787 68.2262 54.3739 68.0574 54.6778 67.7059C54.997 67.3544 55.1489 66.806 55.1489 66.0608C55.1489 65.2453 54.9818 64.6406 54.6322 64.2469C54.3587 63.9235 53.9787 63.7689 53.4772 63.7689" fill="white"/>
<path d="M62.769 63.5158L62.901 65.1328H62.769C62.604 64.6547 62.3564 64.3032 62.0429 64.0923C61.7294 63.8814 61.3498 63.7689 60.9043 63.7689C60.5413 63.7689 60.1947 63.8532 59.8977 64.0079C59.6007 64.1626 59.3696 64.4157 59.1881 64.7672C59.0231 65.1187 58.9241 65.5546 58.9241 66.0748C58.9241 66.4967 59.0066 66.8763 59.1716 67.1857C59.3366 67.495 59.5842 67.7481 59.8977 67.9028C60.2277 68.0715 60.5908 68.1559 61.0033 68.1559C61.3663 68.1559 61.6799 68.0856 61.9604 67.959C62.2409 67.8325 62.538 67.5653 62.868 67.1716L63 67.2419C62.7195 67.6637 62.3894 67.9731 62.0264 68.1699C61.6634 68.3668 61.2178 68.4652 60.7063 68.4652C59.7822 68.4652 59.0726 68.1699 58.5611 67.5934C58.1815 67.1575 58 66.6513 58 66.0608C58 65.5827 58.132 65.1468 58.3795 64.7531C58.6271 64.3594 58.9736 64.0501 59.4026 63.8392C59.8317 63.6142 60.3102 63.5158 60.8383 63.5158C61.2343 63.5158 61.6304 63.6001 62.0264 63.7689C62.1419 63.8251 62.2244 63.8392 62.2739 63.8392C62.3564 63.8392 62.4059 63.811 62.4719 63.7689C62.538 63.6986 62.5875 63.6142 62.6205 63.5017H62.769V63.5158Z" fill="white"/>
<path d="M66.3857 65.7858H68.6286V64.3802C68.6286 64.1313 68.6143 63.9556 68.5857 63.8824C68.5571 63.8238 68.5143 63.7653 68.4429 63.7213C68.3429 63.6628 68.2286 63.6335 68.1143 63.6335H67.9429V63.5017H70V63.6335H69.8286C69.7143 63.6335 69.6 63.6628 69.5 63.7213C69.4286 63.7653 69.3714 63.8238 69.3429 63.897C69.3143 63.9702 69.3 64.1313 69.3 64.3802V67.5721C69.3 67.821 69.3143 67.982 69.3429 68.0699C69.3714 68.1284 69.4143 68.187 69.4857 68.2309C69.5857 68.2895 69.7 68.3188 69.8143 68.3188H69.9857V68.4506H67.9286V68.3188H68.1C68.3 68.3188 68.4429 68.2602 68.5286 68.1431C68.5857 68.0699 68.6143 67.8795 68.6143 67.5867V66.0786H66.3714V67.5867C66.3714 67.8356 66.3857 67.9967 66.4143 68.0845C66.4429 68.1431 66.4857 68.2017 66.5571 68.2456C66.6571 68.3041 66.7714 68.3334 66.8857 68.3334H67.0571V68.4652H65V68.3334H65.1714C65.3714 68.3334 65.5143 68.2749 65.6 68.1577C65.6571 68.0845 65.6857 67.8942 65.6857 67.6013V64.4095C65.6857 64.1606 65.6714 63.9849 65.6429 63.9117C65.6143 63.8531 65.5714 63.7945 65.5 63.7506C65.4 63.692 65.2857 63.6628 65.1714 63.6628H65V63.531H67.0571V63.6628H66.8857C66.7714 63.6628 66.6571 63.692 66.5571 63.7506C66.4857 63.7945 66.4286 63.8531 66.4 63.9263C66.3714 63.9995 66.3571 64.1606 66.3571 64.4095V65.8151L66.3857 65.7858Z" fill="white"/>
<path d="M74.538 63.5017C75.2067 63.5017 75.7842 63.7407 76.2705 64.2048C76.7568 64.6688 77 65.2593 77 65.9483C77 66.6373 76.7568 67.27 76.2705 67.7481C75.7842 68.2262 75.1915 68.4652 74.4924 68.4652C73.7933 68.4652 73.2006 68.2402 72.7143 67.7762C72.228 67.3122 72 66.7076 72 65.9764C72 65.2453 72.2736 64.6125 72.8359 64.1344C73.3222 63.7267 73.8997 63.5158 74.5684 63.5158M74.4924 63.7689C74.0365 63.7689 73.6717 63.9235 73.383 64.2469C73.0334 64.6406 72.8663 65.2171 72.8663 65.9624C72.8663 66.7076 73.0486 67.3263 73.3982 67.7481C73.6717 68.0715 74.0365 68.2262 74.4924 68.2262C74.9787 68.2262 75.3739 68.0574 75.6778 67.7059C75.997 67.3544 76.1489 66.806 76.1489 66.0608C76.1489 65.2453 75.9818 64.6406 75.6322 64.2469C75.3587 63.9235 74.9787 63.7689 74.4772 63.7689" fill="white"/>
<path d="M82.75 65.9172C83.1283 65.9908 83.4243 66.1086 83.6053 66.2707C83.8684 66.4916 84 66.7714 84 67.0955C84 67.3458 83.9178 67.5815 83.7368 67.8024C83.5559 68.0233 83.3257 68.1854 83.0132 68.3032C82.7007 68.4063 82.2401 68.4652 81.6151 68.4652H79V68.3326H79.2138C79.4441 68.3326 79.6086 68.2737 79.7072 68.1412C79.773 68.0528 79.8059 67.8761 79.8059 67.5962V64.3854C79.8059 64.0761 79.773 63.8847 79.6908 63.7963C79.5921 63.6932 79.4276 63.6343 79.2138 63.6343H79V63.5017H81.4013C81.8454 63.5017 82.2072 63.5312 82.4704 63.5901C82.8816 63.6785 83.1941 63.8405 83.4079 64.0614C83.6217 64.2823 83.7368 64.5474 83.7368 64.8273C83.7368 65.0777 83.6546 65.2986 83.4901 65.4901C83.3257 65.6815 83.0789 65.8288 82.7336 65.9319M80.5954 65.7404C80.6941 65.7552 80.8092 65.7699 80.9408 65.7846C81.0724 65.7846 81.2204 65.7846 81.3684 65.7846C81.7632 65.7846 82.0592 65.7404 82.273 65.6668C82.4704 65.5932 82.6349 65.4753 82.7336 65.3133C82.8322 65.1513 82.898 64.9746 82.898 64.7978C82.898 64.6211 82.7664 64.2529 82.5033 64.0467C82.2401 63.8405 81.8454 63.7374 81.352 63.7374C81.0724 63.7374 80.8257 63.7668 80.6118 63.811V65.7257L80.5954 65.7404ZM80.5954 68.1117C80.9079 68.1706 81.2204 68.2148 81.5329 68.2148C82.0263 68.2148 82.4046 68.1117 82.6678 67.9202C82.9309 67.7288 83.0625 67.4784 83.0625 67.1838C83.0625 66.9924 82.9967 66.8009 82.8816 66.6241C82.7664 66.4474 82.5691 66.3001 82.3059 66.197C82.0428 66.0939 81.7138 66.0497 81.3191 66.0497C81.1546 66.0497 81.0066 66.0497 80.8914 66.0497C80.7763 66.0497 80.6776 66.0497 80.5954 66.0792V68.1117Z" fill="white"/>
<path d="M88.8547 66.8442H86.6592L86.2737 67.6045C86.1732 67.791 86.1229 67.9344 86.1229 68.0205C86.1229 68.0922 86.1564 68.164 86.2402 68.2213C86.324 68.2787 86.4916 68.3074 86.7765 68.3361V68.4652H85V68.3361C85.2346 68.3074 85.3855 68.25 85.4525 68.1926C85.5866 68.0779 85.7542 67.8484 85.9218 67.4897L87.9162 63.5017H88.067L90.0279 67.5328C90.1788 67.8627 90.3296 68.0635 90.4637 68.164C90.5978 68.2644 90.7654 68.3074 91 68.3218V68.4509H88.7709V68.3218C88.9888 68.3218 89.1564 68.2787 89.2235 68.2213C89.3073 68.164 89.3408 68.1066 89.3408 68.0205C89.3408 67.9344 89.2905 67.7479 89.1732 67.5184L88.838 66.8155L88.8547 66.8442ZM88.7374 66.586L87.7821 64.635L86.7933 66.586H88.7374Z" fill="white"/>
<path d="M93.3857 65.7858H95.6286V64.3802C95.6286 64.1313 95.6143 63.9556 95.5857 63.8824C95.5571 63.8238 95.5143 63.7653 95.4429 63.7213C95.3429 63.6628 95.2286 63.6335 95.1143 63.6335H94.9429V63.5017H97V63.6335H96.8286C96.7143 63.6335 96.6 63.6628 96.5 63.7213C96.4286 63.7653 96.3714 63.8238 96.3429 63.897C96.3143 63.9702 96.3 64.1313 96.3 64.3802V67.5721C96.3 67.821 96.3143 67.982 96.3429 68.0699C96.3714 68.1284 96.4143 68.187 96.4857 68.2309C96.5857 68.2895 96.7 68.3188 96.8143 68.3188H96.9857V68.4506H94.9286V68.3188H95.1C95.3 68.3188 95.4429 68.2602 95.5286 68.1431C95.5857 68.0699 95.6143 67.8795 95.6143 67.5867V66.0786H93.3714V67.5867C93.3714 67.8356 93.3857 67.9967 93.4143 68.0845C93.4429 68.1431 93.4857 68.2017 93.5571 68.2456C93.6571 68.3041 93.7714 68.3334 93.8857 68.3334H94.0571V68.4652H92V68.3334H92.1714C92.3714 68.3334 92.5143 68.2749 92.6 68.1577C92.6571 68.0845 92.6857 67.8942 92.6857 67.6013V64.4095C92.6857 64.1606 92.6714 63.9849 92.6429 63.9117C92.6143 63.8531 92.5714 63.7945 92.5 63.7506C92.4 63.692 92.2857 63.6628 92.1714 63.6628H92V63.531H94.0571V63.6628H93.8857C93.7714 63.6628 93.6571 63.692 93.5571 63.7506C93.4857 63.7945 93.4286 63.8531 93.4 63.9263C93.3714 63.9995 93.3571 64.1606 93.3571 64.4095V65.8151L93.3857 65.7858Z" fill="white"/>
<path d="M102.538 63.5017C103.207 63.5017 103.784 63.7407 104.271 64.2048C104.757 64.6688 105 65.2593 105 65.9483C105 66.6373 104.757 67.27 104.271 67.7481C103.784 68.2262 103.191 68.4652 102.492 68.4652C101.793 68.4652 101.201 68.2402 100.714 67.7762C100.228 67.3122 100 66.7076 100 65.9764C100 65.2453 100.274 64.6125 100.836 64.1344C101.322 63.7267 101.9 63.5158 102.568 63.5158M102.492 63.7689C102.036 63.7689 101.672 63.9235 101.383 64.2469C101.033 64.6406 100.866 65.2171 100.866 65.9624C100.866 66.7076 101.049 67.3263 101.398 67.7481C101.672 68.0715 102.036 68.2262 102.492 68.2262C102.979 68.2262 103.374 68.0574 103.678 67.7059C103.997 67.3544 104.149 66.806 104.149 66.0608C104.149 65.2453 103.982 64.6406 103.632 64.2469C103.359 63.9235 102.979 63.7689 102.477 63.7689" fill="white"/>
<path d="M113.75 65.9172C114.128 65.9908 114.424 66.1086 114.605 66.2707C114.868 66.4916 115 66.7714 115 67.0955C115 67.4195 114.918 67.5815 114.737 67.8024C114.556 68.0233 114.326 68.1854 114.013 68.3032C113.701 68.4063 113.24 68.4652 112.615 68.4652H110V68.3326H110.214C110.444 68.3326 110.609 68.2737 110.707 68.1412C110.773 68.0528 110.806 67.8761 110.806 67.5962V64.3854C110.806 64.0761 110.773 63.8847 110.691 63.7963C110.592 63.6932 110.428 63.6343 110.214 63.6343H110V63.5017H112.401C112.845 63.5017 113.207 63.5312 113.47 63.5901C113.882 63.6785 114.194 63.8405 114.408 64.0614C114.622 64.2823 114.737 64.5474 114.737 64.8273C114.737 65.1071 114.655 65.2986 114.49 65.4901C114.326 65.6815 114.079 65.8288 113.734 65.9319M111.595 65.7404C111.694 65.7552 111.809 65.7699 111.941 65.7846C112.072 65.7846 112.22 65.7846 112.368 65.7846C112.763 65.7846 113.059 65.7404 113.273 65.6668C113.47 65.5932 113.618 65.4753 113.734 65.3133C113.832 65.1513 113.898 64.9746 113.898 64.7978C113.898 64.6211 113.766 64.2529 113.503 64.0467C113.24 63.8405 112.862 63.7374 112.352 63.7374C112.072 63.7374 111.826 63.7668 111.612 63.811V65.7257L111.595 65.7404ZM111.595 68.1117C111.908 68.1706 112.22 68.2148 112.533 68.2148C113.026 68.2148 113.405 68.1117 113.668 67.9202C113.931 67.7288 114.063 67.4784 114.063 67.1838C114.063 66.8893 113.997 66.8009 113.882 66.6241C113.766 66.4474 113.569 66.3001 113.306 66.197C113.043 66.0939 112.714 66.0497 112.319 66.0497C112.155 66.0497 112.007 66.0497 111.891 66.0497C111.776 66.0497 111.678 66.0497 111.595 66.0792V68.1117Z" fill="white"/>
<path d="M121 64.0789L122.242 63.5017H122.364V67.6139C122.364 67.8881 122.364 68.0612 122.394 68.1189C122.409 68.1911 122.47 68.2343 122.545 68.2776C122.621 68.3065 122.773 68.3353 123 68.3353V68.4652H121.076V68.3353C121.318 68.3353 121.47 68.3065 121.545 68.2776C121.621 68.2488 121.667 68.1911 121.697 68.1333C121.727 68.0756 121.742 67.9025 121.742 67.6139V64.9879C121.742 64.6272 121.742 64.4107 121.712 64.3097C121.697 64.2376 121.667 64.1799 121.621 64.1366C121.576 64.1077 121.515 64.0789 121.455 64.0789C121.364 64.0789 121.227 64.1221 121.061 64.1943L121 64.0789Z" fill="white"/>
<path d="M126.099 68.4652V68.3383C126.41 68.3383 126.693 68.2678 126.948 68.1268C127.217 67.9858 127.472 67.7461 127.712 67.4076C127.953 67.0692 128.123 66.6885 128.222 66.2796C127.854 66.5193 127.514 66.6321 127.217 66.6321C126.877 66.6321 126.594 66.5052 126.354 66.2373C126.113 65.9835 126 65.6309 126 65.2079C126 64.7849 126.127 64.4183 126.354 64.0939C126.637 63.6991 127.019 63.5017 127.486 63.5017C127.882 63.5017 128.208 63.6568 128.491 63.9811C128.83 64.376 129 64.8695 129 65.4617C129 65.9835 128.873 66.477 128.604 66.9423C128.349 67.3935 127.981 67.7743 127.514 68.0845C127.132 68.3383 126.722 68.4511 126.283 68.4511H126.085L126.099 68.4652ZM128.278 66.0258C128.321 65.7155 128.335 65.4758 128.335 65.2925C128.335 65.0669 128.292 64.8272 128.222 64.5593C128.151 64.2914 128.038 64.0939 127.896 63.9529C127.755 63.8119 127.599 63.7414 127.415 63.7414C127.203 63.7414 127.019 63.8401 126.863 64.0234C126.708 64.2067 126.623 64.4888 126.623 64.8554C126.623 65.3489 126.722 65.7296 126.934 66.0117C127.09 66.2091 127.274 66.3078 127.5 66.3078C127.613 66.3078 127.741 66.2796 127.882 66.2373C128.024 66.1809 128.165 66.1104 128.278 66.0258Z" fill="white"/>
<path d="M131.079 64.5228C131.236 64.1966 131.424 63.9555 131.644 63.7712C131.88 63.601 132.162 63.5017 132.508 63.5017C132.932 63.5017 133.262 63.6293 133.482 63.8704C133.654 64.0548 133.733 64.2533 133.733 64.466C133.733 64.8206 133.497 65.1751 133.01 65.5438C133.34 65.6573 133.576 65.8275 133.749 66.0402C133.921 66.2529 134 66.5082 134 66.7918C134 67.2031 133.859 67.5576 133.56 67.8696C133.183 68.2667 132.634 68.4652 131.911 68.4652C131.55 68.4652 131.314 68.4227 131.188 68.3517C131.063 68.2667 131 68.1816 131 68.0965C131 68.0256 131.031 67.9689 131.094 67.9121C131.157 67.8554 131.236 67.8412 131.314 67.8412C131.377 67.8412 131.44 67.8412 131.518 67.8696C131.565 67.8696 131.66 67.9263 131.817 67.9972C131.974 68.0681 132.084 68.1107 132.147 68.1248C132.241 68.1532 132.351 68.1674 132.461 68.1674C132.728 68.1674 132.963 68.0681 133.152 67.8838C133.356 67.6994 133.45 67.4725 133.45 67.2172C133.45 67.0329 133.403 66.8485 133.309 66.6783C133.246 66.5507 133.168 66.4514 133.089 66.3805C132.979 66.2813 132.822 66.1962 132.634 66.1253C132.445 66.0544 132.241 66.0118 132.037 66.0118H131.911V65.9125C132.115 65.8842 132.319 65.8275 132.524 65.714C132.728 65.6006 132.885 65.4729 132.979 65.3169C133.073 65.1609 133.12 64.9908 133.12 64.8064C133.12 64.622 133.042 64.3668 132.869 64.225C132.696 64.0831 132.492 63.9981 132.241 63.9981C131.832 63.9981 131.503 64.1966 131.236 64.5795L131.11 64.5228H131.079Z" fill="white"/>
<path d="M137 65.9976C137 65.4617 137.083 64.9823 137.234 64.6016C137.399 64.2067 137.606 63.9247 137.867 63.7273C138.073 63.5722 138.28 63.5017 138.5 63.5017C138.858 63.5017 139.174 63.685 139.463 64.0657C139.821 64.5311 140 65.1515 140 65.9412C140 66.4911 139.917 66.9564 139.766 67.3512C139.615 67.732 139.408 68.014 139.174 68.1973C138.94 68.3665 138.706 68.4652 138.472 68.4652C138.032 68.4652 137.661 68.1973 137.372 67.6615C137.124 67.2102 137 66.6603 137 66.0258M137.674 66.1104C137.674 66.759 137.757 67.2948 137.908 67.7179C138.032 68.0704 138.239 68.2396 138.486 68.2396C138.61 68.2396 138.734 68.1832 138.872 68.0704C139.009 67.9576 139.106 67.7602 139.174 67.5063C139.284 67.0974 139.326 66.5334 139.326 65.8001C139.326 65.2502 139.271 64.799 139.161 64.4465C139.078 64.1785 138.968 63.9811 138.844 63.8683C138.748 63.7978 138.638 63.7555 138.5 63.7555C138.349 63.7555 138.211 63.826 138.087 63.967C137.922 64.1644 137.812 64.4606 137.757 64.8836C137.702 65.2925 137.674 65.7155 137.674 66.1104Z" fill="white"/>
<path d="M42.5622 39.7224C46.2476 39.7224 49 42.4409 49 46.1673C49 49.8938 46.1854 52.6275 42.4378 52.6275C38.6902 52.6275 36 49.8632 36 46.1673C36 42.4714 38.8146 39.7224 42.5622 39.7224ZM42.4378 40.3791C40.323 40.3791 39.25 42.2882 39.25 46.1673C39.25 50.0465 40.5096 51.9861 42.5466 51.9861C44.5837 51.9861 45.7656 50.0617 45.7656 46.1673C45.7656 42.2729 44.4749 40.3791 42.4533 40.3791" fill="white"/>
<path d="M65.9518 43.7237H65.4859C64.6506 41.5856 62.7871 40.3791 60.8112 40.3791C58.4819 40.3791 57.3574 42.3034 57.3574 46.2131C57.3574 50.1228 58.6747 51.7112 61.1807 51.7112C62.7068 51.7112 64.2972 50.917 65.4699 49.4661L66 49.9396C64.6988 51.7112 62.7872 52.6275 60.5703 52.6275C56.8112 52.6275 54 50.0159 54 46.152C54 42.2882 56.7149 39.7224 60.6345 39.7224C63.1888 39.7224 65.6787 40.318 65.6787 40.318L65.9518 43.7237Z" fill="white"/>
<path d="M155.97 52.4545C155.697 52.2636 154.799 51.8021 154.35 51.5157C154.27 51.2611 154.238 50.9588 154.238 50.6246V41.6181C154.238 41.2839 154.27 40.9975 154.35 40.727C154.799 40.4406 155.697 39.9791 155.97 39.7881C156.002 39.7722 156.002 39.7245 155.97 39.7086V39.6768H149.459V39.7086C149.459 39.7086 149.443 39.7563 149.459 39.7881C149.732 39.9791 150.598 40.4246 151.047 40.7111C151.127 40.9816 151.159 41.268 151.159 41.6181V45.4689H145.803V41.6181C145.803 41.2839 145.835 40.9816 145.915 40.727C146.364 40.4406 147.262 39.9791 147.519 39.7881C147.551 39.7722 147.551 39.7404 147.519 39.7086V39.6768H141.008V39.7245C141.008 39.7245 141.008 39.7722 141.024 39.7881C141.297 39.9791 142.163 40.4246 142.612 40.7111C142.692 40.9657 142.724 41.268 142.724 41.6181V50.6246C142.724 50.9588 142.692 51.2611 142.612 51.5316C142.163 51.818 141.281 52.2636 141.024 52.4545C140.992 52.4704 140.992 52.5023 141.024 52.5341V52.5659H147.535V52.5341C147.535 52.5341 147.567 52.4864 147.535 52.4545C147.262 52.2636 146.38 51.818 145.931 51.5316C145.851 51.277 145.819 50.9747 145.819 50.6405V46.3282H151.175V50.6405C151.175 50.9747 151.143 51.277 151.063 51.5475C150.614 51.8339 149.748 52.2795 149.475 52.4705C149.443 52.4864 149.443 52.5182 149.475 52.55V52.5818H155.986V52.55C155.986 52.55 156.018 52.4864 155.986 52.4705" fill="white"/>
<path d="M27.4234 46.7434C30.4229 46.7434 32 45.3078 32 43.1702C32 40.3627 29.6344 39.6768 26.8977 39.6768H21.0687C21.0687 39.6768 20.9759 39.7565 21.0223 39.7884C21.3161 40.0117 22.4293 40.586 22.7386 40.8412C22.7849 41.0646 22.8159 41.3198 22.8159 41.6069V50.6357C22.8159 50.9228 22.8004 51.1781 22.7386 51.4174C22.4293 51.6726 21.3161 52.2468 21.0223 52.4702C20.9759 52.5021 21.0069 52.5818 21.0687 52.5818H27.4389C27.4389 52.5818 27.5316 52.5021 27.4852 52.4702C27.2069 52.2788 26.2483 51.7683 25.8618 51.4812C25.7999 51.2259 25.769 50.9547 25.769 50.6357V46.7434H27.4234ZM25.769 41.6069C25.769 40.4903 25.97 40.3467 26.7122 40.3467C28.2274 40.3467 28.784 41.2241 28.784 43.234C28.784 45.244 28.1037 46.0575 26.3256 46.0575H25.7845V41.591L25.769 41.6069Z" fill="white"/>
<path d="M15.3472 40.7322C15.7743 40.4443 16.7076 39.9646 16.9765 39.7727C17.024 39.7407 16.9923 39.6927 16.9449 39.6768H3.0405C3.0405 39.6768 2.97722 39.7407 3.00886 39.7727C3.27777 39.9646 4.21106 40.4443 4.63816 40.7322C4.71725 40.9881 4.74888 41.2759 4.74888 41.5957V50.6469C4.74888 51.0147 4.71725 51.3185 4.62234 51.5904C4.1636 51.8782 3.35686 52.31 3.10377 52.4859C3.10377 52.4859 3.07213 52.5019 3.05631 52.5019V52.5818H9.46277V52.5499C9.46277 52.5499 9.46277 52.5179 9.46277 52.5019C9.46277 52.5019 9.46277 52.4859 9.46277 52.4699C9.19386 52.278 8.32385 51.8302 7.88093 51.5424C7.80184 51.2865 7.7702 50.9827 7.7702 50.6469V40.5083H12.2468V50.6469C12.2468 50.9987 12.2152 51.3025 12.1203 51.5584C11.6774 51.8462 10.8232 52.294 10.5542 52.4699C10.5542 52.4699 10.5542 52.4699 10.5542 52.4859V52.5658H16.9765C16.9765 52.5658 17.0082 52.4859 16.9765 52.4539C16.7076 52.262 15.8218 51.7983 15.3789 51.5104C15.2998 51.2545 15.2681 50.9507 15.2681 50.6149V41.5637C15.2681 41.2439 15.2998 40.9561 15.363 40.7002" fill="white"/>
<path d="M173.92 52.4542C173.671 52.2788 172.833 51.8321 172.399 51.545C172.352 51.4174 172.321 51.3057 172.306 51.1781C172.275 51.0186 172.275 50.8431 172.275 50.6357V41.6069C172.275 41.2719 172.306 40.9689 172.383 40.7136C172.818 40.4265 173.671 39.9639 173.935 39.7884C173.982 39.7565 173.951 39.6927 173.904 39.6768C173.92 39.6768 173.935 39.6768 173.951 39.6768H167.65C167.65 39.6768 167.681 39.6768 167.697 39.6768C167.635 39.6768 167.619 39.7406 167.666 39.7884C167.93 39.9798 168.768 40.4265 169.218 40.7136C169.295 40.8891 169.342 41.0646 169.342 41.24L164.609 49.3277V41.6069C164.609 41.2719 164.64 40.9848 164.717 40.7296C165.152 40.4424 166.036 39.9798 166.3 39.7884C166.331 39.7565 166.316 39.7246 166.3 39.6927H160V39.7884H160.047C160.31 39.9798 161.117 40.4105 161.552 40.6977C161.629 40.9529 161.676 41.256 161.676 41.6229V50.6517C161.676 50.9867 161.645 51.2897 161.567 51.5609C161.117 51.8481 160.295 52.2947 160.047 52.4702C160 52.5021 160.031 52.5659 160.078 52.5818C160.047 52.5818 160.031 52.5818 160 52.5818H166.269C166.269 52.5818 166.362 52.5021 166.316 52.4702C166.052 52.2788 165.183 51.8161 164.749 51.529C164.671 51.3535 164.624 51.1462 164.624 50.9547L169.357 42.8671V50.6517C169.357 50.9867 169.326 51.2738 169.249 51.545C168.814 51.8321 167.945 52.2947 167.697 52.4702C167.65 52.5021 167.681 52.5659 167.728 52.5818C167.712 52.5818 167.697 52.5818 167.681 52.5818H173.982C173.982 52.5818 173.951 52.5818 173.935 52.5818C173.997 52.5818 174.028 52.518 173.966 52.4702" fill="white"/>
<path d="M188.876 49.2325C188.38 49.7722 187.062 51.1691 186.612 51.5024C186.054 51.9152 185.434 51.9786 182.705 51.9786C182.658 51.9786 182.596 51.931 182.596 51.8834V46.5658C182.596 46.4547 182.689 46.3595 182.798 46.3595H184.364C184.364 46.3595 185.077 46.3118 185.604 46.8515C185.977 47.2325 186.349 47.8039 186.581 48.169L186.411 47.8833L186.597 48.169H186.612C186.612 48.169 186.659 48.2167 186.674 48.2167H186.69C186.69 48.2167 186.783 48.1849 186.783 48.1214V44.2166C186.783 44.1213 186.659 44.0737 186.597 44.1531H186.581L185.48 45.4388C185.48 45.4388 185.217 45.7087 184.379 45.7087H182.813C182.705 45.7087 182.612 45.6134 182.612 45.5023V40.3911C182.612 40.3911 182.643 40.2958 182.689 40.2958C185.418 40.2958 185.713 40.2482 186.256 40.6768C186.705 41.0101 188.023 42.4229 188.519 42.9626C188.581 43.0419 188.705 42.9626 188.69 42.8832L188.504 39.7879C188.504 39.7879 188.442 39.6768 188.38 39.6768H178.084C178.084 39.6768 177.991 39.7561 178.038 39.7879C178.224 39.9149 178.736 40.2006 179.154 40.4546L179.604 40.7403C179.604 40.7403 179.666 40.8038 179.666 40.8514C179.666 41.7086 179.743 50.1056 179.681 51.4707C179.309 51.7405 178.301 52.2644 178.022 52.4707C177.976 52.5025 178.007 52.5818 178.069 52.5818H188.643C188.736 52.5818 188.814 52.5025 188.814 52.4072L189 49.3595C189 49.2643 188.891 49.2008 188.814 49.2802" fill="white"/>
<path d="M135.86 49.2325C135.364 49.7722 134.046 51.1691 133.597 51.5024C133.039 51.9152 132.418 51.9786 129.689 51.9786C129.643 51.9786 129.596 51.931 129.596 51.8834V46.5658C129.596 46.4547 129.689 46.3595 129.798 46.3595H131.364C131.364 46.3595 132.077 46.3118 132.604 46.8515C132.977 47.2325 133.349 47.8039 133.581 48.169L133.411 47.8833L133.597 48.169H133.612C133.612 48.169 133.659 48.2167 133.674 48.2167H133.69C133.69 48.2167 133.783 48.1849 133.783 48.1214V44.2166C133.783 44.1213 133.659 44.0737 133.597 44.1531H133.581L132.48 45.4388C132.48 45.4388 132.217 45.7087 131.379 45.7087H129.813C129.705 45.7087 129.612 45.6134 129.612 45.5023V40.3911C129.612 40.3911 129.643 40.2958 129.689 40.2958C132.418 40.2958 132.713 40.2482 133.256 40.6768C133.705 41.0101 135.023 42.4229 135.519 42.9626C135.581 43.0419 135.705 42.9626 135.69 42.8832L135.488 39.7879C135.488 39.7879 135.442 39.6768 135.364 39.6768H125.069C125.069 39.6768 124.976 39.7561 125.022 39.7879C125.208 39.9149 125.72 40.2006 126.139 40.4546L126.604 40.7403C126.604 40.7403 126.666 40.8038 126.666 40.8514C126.666 41.7086 126.743 50.1056 126.681 51.4707C126.309 51.7405 125.301 52.2644 125.022 52.4707C124.976 52.5025 125.007 52.5818 125.069 52.5818H135.643C135.736 52.5818 135.814 52.5025 135.814 52.4072L136 49.3595C136 49.2643 135.891 49.2008 135.814 49.2802" fill="white"/>
<path d="M95.8449 49.2325C95.3488 49.7722 94.0309 51.1691 93.5812 51.5024C93.023 51.9152 92.4028 51.9786 89.6739 51.9786C89.6274 51.9786 89.5809 51.931 89.5809 51.8834V46.5658C89.5809 46.4547 89.6739 46.3595 89.7825 46.3595H91.3485C91.3485 46.3595 92.0617 46.3118 92.5889 46.8515C92.961 47.2325 93.3331 47.8039 93.5657 48.169L93.3951 47.8833L93.5812 48.169H93.5967C93.5967 48.169 93.6432 48.2167 93.6587 48.2167H93.6742C93.6742 48.2167 93.7673 48.1849 93.7673 48.1214V44.2166C93.7673 44.1213 93.6432 44.0737 93.5812 44.1531H93.5657L92.4803 45.4388C92.4803 45.4388 92.2168 45.7087 91.3795 45.7087H89.8135C89.7049 45.7087 89.6119 45.6134 89.6119 45.5023V40.3911C89.6119 40.3911 89.6429 40.2958 89.6894 40.2958C92.4183 40.2958 92.7129 40.2482 93.2556 40.6768C93.7052 41.0101 95.0232 42.4229 95.5193 42.9626C95.5814 43.0419 95.7054 42.9626 95.6899 42.8832L95.5038 39.7879C95.5038 39.7879 95.4418 39.6768 95.3798 39.6768H85.0844C85.0844 39.6768 84.9914 39.7561 85.0379 39.7879C85.224 39.9149 85.7356 40.2006 86.1543 40.4546L86.6039 40.7403C86.6039 40.7403 86.6659 40.8038 86.6659 40.8514C86.6659 41.7086 86.7435 50.1056 86.6814 51.4707C86.3093 51.7405 85.3015 52.2644 85.0224 52.4707C84.9759 52.5025 85.0069 52.5818 85.0689 52.5818H95.6434C95.7364 52.5818 95.8139 52.5025 95.8139 52.4072L96 49.3595C96 49.2643 95.8915 49.2008 95.8139 49.2802" fill="white"/>
<path d="M120.923 51.7864C120.923 51.7864 120.862 51.6755 120.816 51.6755H120.101C119.174 51.6755 119.098 51.4219 119.098 51.089V41.1984C119.098 41.024 119.098 40.8814 119.128 40.7546C119.539 40.4693 120.451 39.9779 120.71 39.7877C120.71 39.7877 120.71 39.7719 120.71 39.756C120.71 39.756 120.71 39.756 120.725 39.756V39.6768H114.55V39.7085C114.55 39.7085 114.505 39.7719 114.55 39.7877C114.824 39.9938 115.798 40.501 116.178 40.7863C116.178 40.9131 116.193 41.0399 116.193 41.1984V51.6596H112.315V41.1984C112.315 41.0399 112.315 40.8972 112.345 40.7704C112.741 40.4851 113.684 39.9938 113.957 39.7877C113.957 39.7877 113.957 39.7719 113.957 39.756C113.957 39.756 113.957 39.7243 113.957 39.7085V39.6768H107.783V39.7085C107.783 39.7085 107.783 39.7085 107.783 39.7243V39.7719C108.057 39.9621 108.984 40.4693 109.38 40.7546C109.38 40.8814 109.41 41.024 109.41 41.1825V51.6438H105.532V41.1825C105.532 41.024 105.532 40.8972 105.547 40.7704C105.927 40.501 106.901 39.9779 107.175 39.7719C107.205 39.7402 107.19 39.7085 107.175 39.6926H101V39.7402H101.03V39.7719C101.289 39.9621 102.201 40.4534 102.612 40.7387C102.627 40.8814 102.642 41.024 102.642 41.1825V50.5501C102.642 50.883 102.627 51.1683 102.566 51.4377C102.141 51.723 101.289 52.1827 101.03 52.3729C100.985 52.4046 101.015 52.4838 101.076 52.4838H117.47C117.987 52.4838 118.413 52.5631 118.763 52.7057C119.219 53.102 120.345 55.004 120.831 55.5271C120.892 55.6064 121.014 55.5271 120.999 55.4479L120.923 51.7706V51.7864Z" fill="white"/>
<path d="M77.4533 45.563C79.4153 45.1642 80.3963 44.223 80.3963 42.6438C80.3963 40.7136 78.7965 39.6768 75.6724 39.6768H70.058C70.058 39.6768 69.9674 39.7565 70.0127 39.7884C70.3145 40.0117 71.4163 40.602 71.703 40.8572C71.7483 41.0805 71.7785 41.3358 71.7785 41.6229V50.6517C71.7785 50.9228 71.7634 51.1781 71.7181 51.4014C71.4314 51.6566 70.3296 52.2468 70.0278 52.4702C69.9825 52.5021 70.0127 52.5818 70.073 52.5818H76.1553C79.204 52.5818 81 51.1781 81 48.865C81 46.552 79.8379 46.0735 77.4533 45.5949M74.6612 41.6388C74.6612 40.7774 74.7064 40.3627 75.5818 40.3627C76.8798 40.3627 77.408 41.1124 77.408 42.8193C77.408 44.8292 76.7137 45.4673 74.8121 45.4673H74.6612V41.6388ZM75.7176 51.9119C74.9177 51.9119 74.6612 51.5131 74.6612 50.6517V46.0575H75.0687C77.091 46.0575 77.8457 46.8392 77.8457 48.9608C77.8457 51.0824 77.3325 51.9119 75.7176 51.9119Z" fill="white"/>
</svg>
