<svg width="75" height="72" viewBox="0 0 75 72" fill="none" xmlns="http://www.w3.org/2000/svg">
<path d="M37.4442 2.47519C37.7419 2.14661 38.2581 2.14661 38.5558 2.47519L41.3448 5.55352C42.3416 6.65373 43.9572 6.93861 45.2702 6.24568L48.9439 4.30689C49.336 4.09994 49.8211 4.2765 49.9884 4.68708L51.5564 8.53366C52.1168 9.90845 53.5376 10.7287 55.0083 10.5266L59.1236 9.96124C59.5628 9.90089 59.9583 10.2327 59.9751 10.6758L60.1329 14.8266C60.1893 16.3102 61.2438 17.5669 62.695 17.8801L66.7554 18.7563C67.1888 18.8498 67.4469 19.2968 67.3112 19.7189L66.0398 23.6735C65.5854 25.0868 66.1465 26.6284 67.4031 27.419L70.919 29.6311C71.2943 29.8672 71.3839 30.3756 71.112 30.7258L68.5647 34.007C67.6543 35.1797 67.6543 36.8203 68.5647 37.993L71.112 41.2742C71.3839 41.6244 71.2943 42.1328 70.919 42.3689L67.4031 44.581C66.1465 45.3716 65.5854 46.9132 66.0398 48.3265L67.3112 52.2811C67.4469 52.7032 67.1888 53.1502 66.7554 53.2437L62.695 54.1199C61.2438 54.4331 60.1893 55.6898 60.1329 57.1734L59.9751 61.3242C59.9583 61.7673 59.5628 62.0991 59.1236 62.0388L55.0083 61.4734C53.5375 61.2713 52.1168 62.0916 51.5564 63.4663L49.9884 67.3129C49.8211 67.7235 49.336 67.9001 48.9439 67.6931L45.2702 65.7543C43.9572 65.0614 42.3416 65.3463 41.3448 66.4465L38.5558 69.5248C38.2581 69.8534 37.7419 69.8534 37.4442 69.5248L34.6552 66.4465C33.6584 65.3463 32.0428 65.0614 30.7298 65.7543L27.0561 67.6931C26.664 67.9001 26.1789 67.7235 26.0116 67.3129L24.4436 63.4663C23.8832 62.0916 22.4624 61.2713 20.9916 61.4734L16.8764 62.0388C16.4372 62.0991 16.0417 61.7673 16.0249 61.3242L15.8671 57.1734C15.8107 55.6898 14.7562 54.4331 13.305 54.1199L9.24456 53.2437C8.81116 53.1502 8.55305 52.7032 8.68876 52.2811L9.96018 48.3265C10.4146 46.9132 9.85348 45.3716 8.59689 44.581L5.08102 42.3689C4.70574 42.1328 4.6161 41.6244 4.88799 41.2742L7.43526 37.993C8.34566 36.8203 8.34566 35.1797 7.43526 34.007L4.88799 30.7258C4.6161 30.3756 4.70574 29.8672 5.08102 29.6311L8.59689 27.419C9.85348 26.6284 10.4146 25.0868 9.96018 23.6734L8.68876 19.7189C8.55305 19.2968 8.81116 18.8498 9.24457 18.7563L13.305 17.8801C14.7562 17.5669 15.8107 16.3102 15.8671 14.8266L16.0249 10.6758C16.0417 10.2327 16.4372 9.90089 16.8764 9.96124L20.9917 10.5266C22.4624 10.7287 23.8832 9.90844 24.4436 8.53366L26.0116 4.68708C26.1789 4.2765 26.664 4.09994 27.0561 4.30689L30.7298 6.24568C32.0428 6.93861 33.6584 6.65373 34.6552 5.55352L37.4442 2.47519Z" stroke="white" stroke-width="2.5"/>
<rect x="1.25" y="24.25" width="72.5" height="22.5" rx="3.75" fill="#5075F7" stroke="white" stroke-width="2.5"/>
</svg>
