<svg width="67" height="76" viewBox="0 0 67 76" fill="none" xmlns="http://www.w3.org/2000/svg">
<path d="M55.9134 75.3843H11.0789C4.97483 75.3843 0 70.4543 0 64.3884V11.401C0 5.33516 4.9672 0.405212 11.0789 0.405212H55.9211C62.0252 0.405212 67 5.33516 67 11.401V64.3884C67 70.4467 62.0328 75.3843 55.9211 75.3843H55.9134ZM11.0789 2.76038C6.27958 2.76038 2.37296 6.63769 2.37296 11.401V64.3884C2.37296 69.1518 6.27958 73.0215 11.0713 73.0215H55.9134C60.7128 73.0215 64.6118 69.1442 64.6118 64.3884V11.401C64.6118 6.63769 60.7052 2.76795 55.9134 2.76795H11.0789V2.76038Z" fill="white"/>
<path d="M66 14.4013H1V16.4013H66V14.4013Z" fill="white"/>
<path d="M14.8349 35.3954C14.5352 35.3954 14.2355 35.2871 14.0107 35.0632L9.34279 30.5636C8.88574 30.123 8.88574 29.4152 9.34279 28.9746C9.79984 28.534 10.5341 28.534 10.9912 28.9746L14.8349 32.6798L21.0088 26.7284C21.4659 26.2878 22.2002 26.2878 22.6572 26.7284C23.1143 27.169 23.1143 27.8768 22.6572 28.3173L15.6591 35.0632C15.4343 35.2799 15.1346 35.3954 14.8349 35.3954Z" fill="white"/>
<path d="M14.8349 56.3896C14.5352 56.3896 14.2355 56.2812 14.0107 56.0573L9.34279 51.5577C8.88574 51.1171 8.88574 50.4093 9.34279 49.9687C9.79984 49.5282 10.5341 49.5282 10.9912 49.9687L14.8349 53.6739L21.0088 47.7225C21.4659 47.2819 22.2002 47.2819 22.6572 47.7225C23.1143 48.1631 23.1143 48.8709 22.6572 49.3115L15.6591 56.0573C15.4343 56.274 15.1346 56.3896 14.8349 56.3896Z" fill="white"/>
<path d="M56.8073 38.3951H29.1927C28.5352 38.3951 28 37.9464 28 37.3951C28 36.8439 28.5352 36.3951 29.1927 36.3951H56.8073C57.4648 36.3951 58 36.8439 58 37.3951C58 37.9464 57.4648 38.3951 56.8073 38.3951Z" fill="white"/>
<path d="M56.8073 56.3901H29.1927C28.5352 56.3901 28 55.9414 28 55.3901C28 54.8389 28.5352 54.3901 29.1927 54.3901H56.8073C57.4648 54.3901 58 54.8389 58 55.3901C58 55.9414 57.4648 56.3901 56.8073 56.3901Z" fill="white"/>
<path d="M56.8073 48.3924H29.1927C28.5352 48.3924 28 47.9437 28 47.3924C28 46.8411 28.5352 46.3924 29.1927 46.3924H56.8073C57.4648 46.3924 58 46.8411 58 47.3924C58 47.9437 57.4648 48.3924 56.8073 48.3924Z" fill="white"/>
<path d="M56.8073 31.3971H29.1927C28.5352 31.3971 28 30.9484 28 30.3971C28 29.8458 28.5352 29.3971 29.1927 29.3971H56.8073C57.4648 29.3971 58 29.8458 58 30.3971C58 30.9484 57.4648 31.3971 56.8073 31.3971Z" fill="white"/>
<path d="M55.8119 10.403H21.1881C20.5331 10.403 20 9.95424 20 9.40295C20 8.85167 20.5331 8.40295 21.1881 8.40295H55.8119C56.4669 8.40295 57 8.85167 57 9.40295C57 9.95424 56.4669 10.403 55.8119 10.403Z" fill="white"/>
<path d="M9.5 10.4033C10.3284 10.4033 11 9.73169 11 8.90326C11 8.07483 10.3284 7.40326 9.5 7.40326C8.67157 7.40326 8 8.07483 8 8.90326C8 9.73169 8.67157 10.4033 9.5 10.4033Z" fill="white"/>
<path d="M15.5 10.4033C16.3284 10.4033 17 9.73169 17 8.90326C17 8.07483 16.3284 7.40326 15.5 7.40326C14.6716 7.40326 14 8.07483 14 8.90326C14 9.73169 14.6716 10.4033 15.5 10.4033Z" fill="white"/>
</svg>
