<svg width="51" height="50" viewBox="0 0 51 50" fill="none" xmlns="http://www.w3.org/2000/svg">
<path d="M50.7022 25C50.7022 38.8108 39.5098 50 25.6951 50C11.8803 50 0.687988 38.8108 0.687988 25C0.687988 11.1892 11.8803 0 25.6951 0C39.5098 0 50.7022 11.1892 50.7022 25Z" fill="#1535A3"/>
<path d="M26.0205 24.8031C28.8059 24.8031 31.0655 22.5341 31.0655 19.737C31.0655 16.9398 28.8059 14.6708 26.0205 14.6708C23.235 14.6708 20.9755 16.9398 20.9755 19.737C20.9755 22.5341 23.235 24.8031 26.0205 24.8031ZM26.0205 17.243C27.3937 17.243 28.504 18.3579 28.504 19.737C28.504 21.116 27.3937 22.2309 26.0205 22.2309C24.6472 22.2309 23.5369 21.116 23.5369 19.737C23.5369 18.3579 24.6472 17.243 26.0205 17.243ZM31.8349 25.4193C31.5524 24.8423 30.7635 24.363 29.7117 25.1944C28.2995 26.3093 26.0205 26.3093 26.0205 26.3093C26.0205 26.3093 23.7415 26.3093 22.3292 25.1944C21.2774 24.363 20.4885 24.8423 20.2061 25.4193C19.7094 26.4169 20.2742 26.9059 21.5404 27.7177C22.6214 28.4121 24.1018 28.6761 25.066 28.7739L24.2674 29.5759C23.1376 30.7104 22.0468 31.8058 21.2969 32.5589C20.8489 33.0088 20.8489 33.7521 21.2969 34.202L21.4332 34.3389C21.8812 34.7888 22.6214 34.7888 23.0694 34.3389L26.0399 31.3559C27.1697 32.4904 28.2605 33.5858 29.0105 34.3389C29.4585 34.7888 30.1987 34.7888 30.6467 34.3389L30.783 34.202C31.231 33.7521 31.231 33.0088 30.783 32.5589L27.8125 29.5759L27.0139 28.7739C27.9781 28.6761 29.439 28.4121 30.5201 27.7274C31.7862 26.9157 32.3511 26.4267 31.8543 25.4291" fill="white"/>
</svg>
