<svg width="70" height="76" viewBox="0 0 70 76" fill="none" xmlns="http://www.w3.org/2000/svg">
<path d="M68.7548 18.2601H49.4584C50.2912 17.6929 51.0764 17.0547 51.7981 16.3536C56.2712 11.8946 56.414 5.14304 53.5588 2.30692C50.7036 -0.529202 43.9066 -0.387397 39.4176 4.05586C37.5776 6.04114 36.0866 8.31004 35 10.7838C33.9134 8.31004 32.4224 6.03326 30.5824 4.04798C26.1013 -0.379519 19.3043 -0.529202 16.4491 2.30692C13.5939 5.14304 13.7367 11.9025 18.2098 16.3536C18.9316 17.0547 19.7167 17.6929 20.5495 18.2601H1.25312C0.563109 18.2601 0 18.8194 0 19.5048V31.9207C0 32.6061 0.563109 33.1655 1.25312 33.1655H3.75142V69.1763C3.75142 72.6033 6.5511 75.3764 10.0011 75.3843H59.9989C63.4489 75.3843 66.2486 72.6033 66.2486 69.1763V33.1655H68.7469C69.4369 33.1655 70 32.6061 70 31.9207V19.5048C70 18.8194 69.4369 18.2601 68.7469 18.2601H68.7548ZM41.1863 5.82055C44.7791 2.25965 50.0215 2.30692 51.7981 4.07161C53.5747 5.83631 53.6143 11.0359 50.0374 14.6046C48.3956 16.1094 46.5239 17.3462 44.4935 18.2601H37.0224V18.1813C37.0224 17.8977 36.9986 17.6141 36.9748 17.3226C36.9669 17.2281 36.9511 17.1335 36.9431 17.039C36.9114 16.8026 36.8797 16.5663 36.84 16.33C36.8242 16.2433 36.8162 16.1645 36.8004 16.0779C36.7369 15.7706 36.6735 15.4634 36.6021 15.1719C36.5942 15.1325 36.5783 15.0931 36.5704 15.0458C36.5069 14.7858 36.4355 14.5495 36.3642 14.2974C36.3562 14.2659 36.3483 14.2265 36.3324 14.195C37.3555 11.0989 39.0131 8.24701 41.1942 5.82055H41.1863ZM40.0045 30.6839H30.0034V20.7496H40.0045V30.6839ZM19.9785 14.6046C16.3936 11.0359 16.4412 5.83631 18.2178 4.06374C19.9943 2.29904 25.2289 2.25965 28.8217 5.81268C31.0979 8.34155 32.8031 11.3274 33.8183 14.5653C33.961 14.9986 34.0641 15.4161 34.1672 15.8258C34.199 15.9439 34.2228 16.0542 34.2465 16.1724C34.3179 16.4718 34.3655 16.7633 34.4131 17.039C34.429 17.1335 34.4448 17.2281 34.4528 17.3226C34.4924 17.6298 34.5162 17.945 34.5162 18.2601H25.5223C23.492 17.3462 21.6202 16.1094 19.9785 14.6046ZM2.50623 20.7417H27.5051V30.676H2.50623V20.7417ZM6.25765 69.1684V33.1655H30.0113V72.8948H10.0011C7.93111 72.8948 6.24972 71.2246 6.24972 69.1684H6.25765ZM32.5096 72.8948V33.1655H37.5062V72.8948H32.5096ZM63.7582 69.1684C63.7582 71.2246 62.0768 72.8948 60.0068 72.8948H40.0045V33.1655H63.7582V69.1763V69.1684ZM67.5096 30.676H42.5108V20.7417H67.5096V30.676Z" fill="white"/>
</svg>
