<svg width="51" height="50" viewBox="0 0 51 50" fill="none" xmlns="http://www.w3.org/2000/svg">
<path d="M50.0796 25C50.0796 38.8108 38.8873 50 25.0725 50C11.2578 50 0.0654297 38.8108 0.0654297 25C0.0654297 11.1892 11.2677 0 25.0725 0C38.8774 0 50.0796 11.1892 50.0796 25Z" fill="#1535A3"/>
<path d="M35.4223 16.9392C35.2964 17.4985 35.1661 18.0573 35.0459 18.6185C34.3957 21.657 33.748 24.6962 33.0997 27.7354C32.6544 29.8225 32.2121 31.9096 31.7586 33.9948C31.6998 34.2654 31.6096 34.5385 31.483 34.784C31.2369 35.2601 30.8122 35.4411 30.303 35.2926C30.0605 35.2219 29.8138 35.1154 29.6102 34.9682C27.8714 33.7085 26.1419 32.4357 24.4094 31.1673C24.353 31.126 24.2947 31.0865 24.2215 31.0352C24.1695 31.079 24.1156 31.1203 24.0667 31.1667C23.1729 32.0179 22.2784 32.8692 21.3865 33.7223C21.1272 33.9704 20.8277 34.11 20.4363 34.0963C20.4688 33.6046 20.4983 33.126 20.5327 32.6468C20.6035 31.6578 20.6762 30.6693 20.7482 29.6803C20.7588 29.5325 20.7996 29.3803 20.7776 29.2375C20.6856 28.6305 21.0564 28.2966 21.4585 27.9377C24.6292 25.1077 27.788 22.264 30.95 19.424C31.0139 19.3664 31.0878 19.3131 31.131 19.2424C31.1717 19.176 31.215 19.0707 31.188 19.015C31.1611 18.9586 31.0396 18.8991 30.9788 18.9148C30.764 18.9705 30.536 19.0238 30.3512 19.139C27.5882 20.8572 24.8315 22.5841 22.0736 24.3104C20.6849 25.1792 19.2975 26.0517 17.9051 26.9142C17.8142 26.9706 17.667 26.9988 17.5681 26.9687C15.803 26.4294 14.0397 25.8826 12.2802 25.327C12.0685 25.26 11.858 25.1572 11.6776 25.0282C11.3475 24.7927 11.3043 24.4457 11.5993 24.1694C11.8273 23.9558 12.1048 23.7667 12.3942 23.6514C13.776 23.0996 15.1691 22.5766 16.5584 22.0441C22.239 19.8687 27.9196 17.6914 33.6033 15.5217C33.8608 15.4233 34.1426 15.3463 34.4151 15.3381C34.8893 15.3237 35.215 15.6019 35.3609 16.0622C35.3797 16.1205 35.4017 16.1781 35.4223 16.2364V16.9398V16.9392Z" fill="white"/>
</svg>
