<svg width="51" height="50" viewBox="0 0 51 50" fill="none" xmlns="http://www.w3.org/2000/svg">
<path d="M50.0142 25C50.0142 38.8108 38.8219 50 25.0071 50C11.1923 50 0 38.8108 0 25C0 11.1892 11.1923 0 25.0071 0C38.8219 0 50.0142 11.1892 50.0142 25Z" fill="#1535A3"/>
<path fill-rule="evenodd" clip-rule="evenodd" d="M38.7034 18.6158C38.3141 18.3386 36.9393 18.3386 35.5645 18.3386C34.1648 18.3631 32.7651 18.3631 32.4421 18.4935C32.144 18.6077 31.4731 20.2058 30.6035 21.8447C29.6014 23.7037 28.3922 25.4975 27.622 25.4649C26.6116 25.4649 26.8517 22.4154 26.9263 20.1569C26.9428 18.6811 26.6944 18.2082 26.4873 18.0777C25.9573 17.7108 24.5079 17.3602 24.5079 17.3602C24.5079 17.3602 20.1433 17.034 19.5304 18.8931C20.3752 19.0072 21.7997 18.7545 21.2448 24.4946C21.2034 24.7719 20.5739 27.1364 18.5448 23.9483C18.0313 23.1493 16.0933 18.3631 15.4059 18.3305C13.1697 18.2897 10.9419 18.1919 10.1716 18.6077C9.44281 19.0317 11.1406 22.3176 14.0062 26.7206C16.3335 30.3408 18.8016 33.1538 23.0751 33.855C23.8868 33.9366 25.9738 34.0262 26.6364 33.7164C27.0754 33.5044 26.5205 30.3897 28.0444 30.0799C28.7152 29.9576 31.3241 33.3413 32.3096 33.7164C32.9059 33.9529 34.2228 34.0507 35.5645 33.9936C37.0221 33.9529 38.6703 34.1322 38.8276 33.1538C39.1837 31.0094 34.4216 28.1964 34.289 26.8755C34.1731 25.9215 36.0283 24.1685 36.9724 22.815C38.1402 21.1842 39.4239 19.2192 38.6951 18.5995" fill="white"/>
</svg>
