<svg width="51" height="50" viewBox="0 0 51 50" fill="none" xmlns="http://www.w3.org/2000/svg">
<path d="M50.3902 25C50.3902 38.8108 39.1978 50 25.3831 50C11.5683 50 0.375977 38.8108 0.375977 25C0.375977 11.1892 11.5782 0 25.3831 0C39.1879 0 50.3902 11.1892 50.3902 25Z" fill="#1535A3"/>
<path fill-rule="evenodd" clip-rule="evenodd" d="M38.7964 18.9891C38.7964 18.9891 38.5116 17.0209 37.6965 16.169C36.6556 15.0429 35.487 15.0331 34.9666 14.9547C31.1466 14.6708 25.4117 14.6708 25.4117 14.6708H25.3823C25.3823 14.6708 19.6671 14.6708 15.8373 14.9547C15.2874 15.0331 14.1286 15.0429 13.0975 16.169C12.2825 17.0209 11.9977 18.9891 11.9977 18.9891C11.9977 18.9891 11.7129 21.2903 11.7129 23.5719V25.7458C11.7129 28.047 11.9977 30.3286 11.9977 30.3286C11.9977 30.3286 12.2825 32.2968 13.0975 33.1683C14.1286 34.3042 15.4936 34.2651 16.1221 34.3826C18.3021 34.6078 25.4117 34.6763 25.4117 34.6763C25.4117 34.6763 31.1466 34.647 34.9666 34.3826C35.487 34.3042 36.6556 34.3042 37.6965 33.1683C38.5116 32.2968 38.7964 30.3286 38.7964 30.3286C38.7964 30.3286 39.0615 28.0568 39.0615 25.7458V23.5719C39.0615 21.3001 38.7964 18.9891 38.7964 18.9891ZM29.9682 24.3651L22.5738 28.3408V20.3601L25.9224 22.1814L29.9682 24.3651Z" fill="white"/>
</svg>
